<?xml version="1.0" encoding="UTF-8" standalone="no"?>
<svg
   xmlns:dc="http://purl.org/dc/elements/1.1/"
   xmlns:cc="http://creativecommons.org/ns#"
   xmlns:rdf="http://www.w3.org/1999/02/22-rdf-syntax-ns#"
   xmlns:svg="http://www.w3.org/2000/svg"
   xmlns="http://www.w3.org/2000/svg"
   xmlns:xlink="http://www.w3.org/1999/xlink"
   width="78.845833mm"
   height="78.845848mm"
   viewBox="0 0 78.845833 78.845848"
   version="1.1"
   id="svg2806">
  <defs
     id="defs2800">
    <rect
       x="-365.19708"
       y="337.13379"
       width="361.08112"
       height="153.4127"
       id="rect2416-9-7" />
    <rect
       x="-365.19708"
       y="337.13379"
       width="361.08112"
       height="153.4127"
       id="rect3378" />
    <rect
       x="-365.19708"
       y="337.13379"
       width="361.08112"
       height="153.4127"
       id="rect2416-9-7-0" />
    <rect
       x="-365.19708"
       y="337.13379"
       width="361.08112"
       height="153.4127"
       id="rect3464" />
    <rect
       x="-365.19708"
       y="337.13379"
       width="361.08112"
       height="153.4127"
       id="rect2416-9-7-04" />
    <rect
       x="-365.19708"
       y="337.13379"
       width="361.08112"
       height="153.4127"
       id="rect3464-9" />
    <rect
       x="-365.19708"
       y="337.13379"
       width="361.08112"
       height="153.4127"
       id="rect2416-9-7-04-0" />
    <rect
       x="-365.19708"
       y="337.13379"
       width="361.08112"
       height="153.4127"
       id="rect4115" />
    <linearGradient
       xlink:href="#linearGradient1408"
       id="linearGradient1243"
       gradientUnits="userSpaceOnUse"
       gradientTransform="translate(61.98809,131.3467)"
       x1="80.433342"
       y1="92.251213"
       x2="146.13837"
       y2="157.95625" />
    <linearGradient
       id="linearGradient1408">
      <stop
         style="stop-color:#ee444c;stop-opacity:1"
         offset="0"
         id="stop1404" />
      <stop
         style="stop-color:#c51112;stop-opacity:1"
         offset="1"
         id="stop1406" />
    </linearGradient>
    <linearGradient
       xlink:href="#linearGradient1058"
       id="linearGradient1241"
       gradientUnits="userSpaceOnUse"
       gradientTransform="translate(85.50391,114.59495)"
       x1="64.400475"
       y1="131.64214"
       x2="76.913231"
       y2="151.089" />
    <linearGradient
       id="linearGradient1058">
      <stop
         style="stop-color:#ff9999;stop-opacity:1;"
         offset="0"
         id="stop1054" />
      <stop
         style="stop-color:#ff4c4c;stop-opacity:1"
         offset="1"
         id="stop1056" />
    </linearGradient>
    <linearGradient
       xlink:href="#linearGradient1070"
       id="linearGradient1239"
       gradientUnits="userSpaceOnUse"
       gradientTransform="translate(61.721,115.76618)"
       x1="140.08102"
       y1="128.62886"
       x2="152.27934"
       y2="148.6049" />
    <linearGradient
       id="linearGradient1070">
      <stop
         style="stop-color:#ff9999;stop-opacity:1;"
         offset="0"
         id="stop1066" />
      <stop
         style="stop-color:#ff6666;stop-opacity:1"
         offset="1"
         id="stop1068" />
    </linearGradient>
  </defs>
  <metadata
     id="metadata2803">
    <rdf:RDF>
      <cc:Work
         rdf:about="">
        <dc:format>image/svg+xml</dc:format>
        <dc:type
           rdf:resource="http://purl.org/dc/dcmitype/StillImage" />
        <dc:title></dc:title>
      </cc:Work>
    </rdf:RDF>
  </metadata>
  <g
     id="layer1"
     transform="translate(-142.42143,-210.45711)">
    <path
       id="path1223"
       style="fill:url(#linearGradient1243);fill-opacity:1;stroke-width:0.264583"
       d="m 155.55034,210.45712 a 13.140968,13.140971 0 0 0 -13.12891,13.1408 13.140968,13.140971 0 0 0 0,0.0124 v 26.26971 a 13.140968,13.140971 0 0 0 0,0.0119 v 26.27023 a 13.140968,13.140971 0 0 0 13.1408,13.1408 h 52.56423 a 13.140968,13.140971 0 0 0 13.1408,-13.1408 13.140968,13.140971 0 0 0 0,-0.0124 v -26.26971 a 13.140968,13.140971 0 0 0 0,-0.0119 v -26.27024 a 13.140968,13.140971 0 0 0 -13.1408,-13.1408 z" />
    <ellipse
       style="fill:#000000;fill-opacity:1;stroke-width:0.264583"
       id="ellipse1225"
       cx="170.20268"
       cy="245.38216"
       rx="5.0270834"
       ry="6.3499999" />
    <ellipse
       style="fill:#000000;fill-opacity:1;stroke-width:0.264583"
       id="ellipse1227"
       cx="192.69225"
       cy="245.38213"
       rx="5.0270834"
       ry="6.3499999" />
    <ellipse
       style="fill:#ffffff;fill-opacity:1;stroke-width:0.264583"
       id="ellipse1229"
       cx="170.99643"
       cy="243.0009"
       rx="2.3812499"
       ry="2.6458333" />
    <ellipse
       style="fill:#ffffff;fill-opacity:1;stroke-width:0.264583"
       id="ellipse1231"
       cx="193.48602"
       cy="242.73631"
       rx="2.3812499"
       ry="2.6458333" />
    <path
       style="fill:url(#linearGradient1241);fill-opacity:1;stroke:#000000;stroke-width:0.258702px;stroke-linecap:butt;stroke-linejoin:miter;stroke-opacity:1"
       d="m 151.35261,265.14286 c 0.14002,-1.20491 -0.4147,-2.30115 -0.63238,-3.43958 -0.11895,-0.62207 0.0192,-1.37473 -0.12648,-1.98437 -0.031,-0.12989 -0.24794,-1.72504 -0.12647,-1.85209 0.0298,-0.0312 0.0967,0.0312 0.12647,0 0.21858,-0.22862 0.54781,-2.4681 0.63238,-2.91041 0.0691,-0.36159 0.18654,-0.711 0.25296,-1.05834 0.0475,-0.24872 -0.10798,-0.70015 0,-0.92604 0.20963,-0.43854 0.25295,-1.05607 0.25295,-1.5875 0,-0.13121 1.31131,-4.01744 1.39124,-4.10104 0.0632,-0.0661 0.18971,-0.0661 0.25295,-0.13229 0.0585,-0.0611 -0.0382,-0.317 0,-0.39688 0.0686,-0.14356 0.48918,-0.67895 0.63238,-0.52916 0.0298,0.0312 -0.0298,0.10111 0,0.13229 0.0943,0.0986 0.2685,0.0549 0.37943,0.13229 0.22206,0.15484 0.26769,0.36305 0.50591,0.52917 0.20744,0.14465 0.0455,0.25222 0.25295,0.39687 0.11093,0.0773 0.27277,0.0486 0.37943,0.13229 0.6615,0.51894 1.99289,2.54942 2.27657,3.43959 0.28942,0.90817 -0.48427,-0.6162 0.12648,0.66145 0.068,0.14221 0.1965,0.24926 0.25295,0.39688 0.0313,0.0819 0,0.17639 0,0.26458 0.0422,0.13229 0.0669,0.27215 0.12648,0.39688 0.28941,0.60544 -0.0524,-0.56137 0.25295,0.39687 0.10587,0.33223 0.11439,0.76847 0.25295,1.05834 0.068,0.1422 0.1965,0.24925 0.25295,0.39687 0.0313,0.0819 -0.0313,0.1827 0,0.26458 0.1675,0.438 0.56845,0.79229 0.75886,1.19063 0.0377,0.0789 -0.0267,0.18091 0,0.26458 0.0377,0.11833 0.21525,0.14626 0.25295,0.26459 0.061,0.19149 0.0433,0.35516 0.12648,0.52916 0.08,0.16734 0.28741,0.23645 0.37943,0.39688 0.0747,0.1302 0.75886,1.75687 0.75886,1.85208 0,0.52191 1.04712,1.92898 0.75886,2.38125 -0.19409,0.30452 -0.42916,0.77491 -0.63238,1.05833 -0.0253,0.0353 -0.0914,-0.0244 -0.12648,0 -0.38862,0.27099 -0.7597,0.46347 -1.13829,0.66146 -0.4577,0.23937 -0.90003,0.75478 -1.39124,0.92604 -0.22702,0.0792 -0.64521,0.22273 -0.88533,0.26459 -0.857,0.1494 -1.80856,0.043 -2.656,0.26458 -0.29207,0.0764 -0.5675,0.28606 -0.88534,0.39688 -0.08,0.0279 -0.19333,-0.0624 -0.25295,0 -0.0298,0.0312 0.0298,0.10111 0,0.13229 -0.0596,0.0624 -0.17754,-0.0394 -0.25295,0 -0.17626,0.0922 -0.27955,0.21723 -0.50591,0.26458 -0.25508,0.0534 -0.63282,-0.088 -0.88533,0 -0.11309,0.0394 -0.7385,0.28589 -0.88534,0.13229 -0.16053,-0.16791 -0.15142,-0.44906 -0.25295,-0.66146 z"
       id="path1233" />
    <path
       style="fill:url(#linearGradient1239);fill-opacity:1;stroke:#000000;stroke-width:0.264583px;stroke-linecap:butt;stroke-linejoin:miter;stroke-opacity:1"
       d="m 203.82229,258.49598 c -0.62404,-0.17209 -1.29894,-0.21542 -1.87213,-0.51625 -0.14047,-0.0737 0.70938,-1.41875 0.79375,-1.5875 0.17639,-0.30868 0.35278,-0.61736 0.52917,-0.92604 0,-0.0882 -0.0279,-0.18092 0,-0.26459 -0.0494,-0.2882 0.22049,-0.0441 0.26458,-0.13229 0.009,-0.0184 0.23608,-0.76524 0.26459,-0.79375 0.1642,-0.1642 0.29882,-0.16653 0.39687,-0.26458 0.0951,-0.0951 0.0841,-0.51682 0.13229,-0.66146 0.1827,-0.54807 0.62659,-0.87012 0.79375,-1.45521 0.0363,-0.1272 -0.0418,-0.27137 0,-0.39687 0.14028,-0.42082 0.42412,-0.83461 0.66146,-1.19063 0.12456,-0.18684 0.49215,-2.21193 0.52917,-2.24896 0.0312,-0.0312 0.10111,0.0312 0.13229,0 0.0986,-0.0986 0.0337,-0.29827 0.13229,-0.39687 0.0312,-0.0312 0.10111,0.0312 0.13229,0 0.0624,-0.0624 -0.0624,-0.20222 0,-0.26458 0.0312,-0.0312 0.0882,0 0.1323,0 0.0441,-0.0441 0.0933,-0.0836 0.13229,-0.13229 0.24218,-0.30274 0.83022,-1.49169 0.92604,-1.5875 0.0698,-0.0698 0.30399,-0.12526 0.39687,-0.26459 0.10654,-0.15981 0.1599,-1.04453 0.66146,-0.79375 0.2467,0.12335 1.32326,1.72048 1.45521,1.98438 0.0863,0.17248 0.38488,0.21651 0.52917,0.39687 0.37331,0.46664 0.48387,0.99039 0.79375,1.45521 0.0245,0.0367 0.10111,-0.0312 0.13229,0 0.15459,0.15459 0.76447,3.66076 0.79375,3.83646 0.043,0.25794 -0.1287,0.93323 0,1.19062 0.24173,0.48345 0.25361,1.01444 0.39687,1.5875 0.0507,0.20296 -0.066,0.46334 0,0.66146 0.0624,0.18709 0.22591,0.33579 0.26459,0.52917 0.026,0.12972 -0.0321,0.26853 0,0.39687 0.0151,0.0605 0.12204,0.0708 0.13229,0.13229 0.0546,0.32729 -0.0864,0.84502 0,1.19063 0.19971,0.79884 0.13229,1.66881 0.13229,2.51354 0,0.60704 0.0649,3.24242 -0.26458,3.57188 -0.0312,0.0312 -0.10111,-0.0312 -0.13229,0 -0.0866,0.0866 -0.0823,0.30571 -0.26459,0.39687 -0.57277,0.28639 -1.28802,0.0349 -1.71979,-0.39687 -0.0661,-0.0661 -0.0661,-0.19844 -0.13229,-0.26459 -0.1263,-0.1263 -0.50889,-0.16287 -0.66146,-0.26458 -0.10378,-0.0692 -0.14878,-0.21826 -0.26458,-0.26458 -0.29973,-0.11989 -0.94166,-0.12161 -1.32292,-0.26459 -0.93416,-0.35031 -1.86222,-0.88532 -2.77812,-1.19062 -0.19844,-0.0662 -0.46302,0.0661 -0.66146,0 -0.38032,-0.12678 -1.09982,-0.70294 -1.32292,-0.92604 -0.0312,-0.0312 0.0312,-0.10111 0,-0.1323 -0.0441,-0.0441 -0.35278,-0.0882 -0.39687,-0.13229 -0.009,-0.009 -0.2437,-0.35509 -0.26459,-0.39687 -0.0394,-0.0789 0.0624,-0.20222 0,-0.26459 -0.083,-0.083 -0.42688,-0.16229 -0.52916,-0.26458 -0.0268,-0.0268 -0.0268,-0.63464 0,-0.66146 0.27371,-0.27371 -0.0107,0.41828 0.26458,-0.13229 0.10871,-0.21742 0.0459,-0.52713 0.13229,-0.52917 0.18729,-0.004 0.36614,0.0796 0.54921,0.11938 z"
       id="path1235" />
    <path
       id="path1237"
       style="fill:#000000;stroke-width:0.861179"
       d="m 209.87408,241.15905 c -0.72499,0 -4.15243,6.1771 -6.81619,12.28452 -0.96989,2.2237 -2.49012,4.29083 -3.37816,4.593 -0.88803,0.30218 -5.05662,0.5587 -9.26337,0.57 -6.89659,0.0186 -13.30888,0.69698 -23.32802,2.46858 l -3.44207,0.60875 -3.6046,-7.68997 c -4.69117,-10.00721 -5.53006,-10.89697 -7.6913,-8.15713 -1.42336,1.80443 -1.6951,3.45265 -1.96308,11.9109 -0.24051,7.59101 -0.0731,10.0076 0.73773,10.65878 1.33864,1.07501 1.72461,1.0729 2.61627,-0.0139 0.95653,-1.16594 14.63862,-4.76155 22.37592,-5.88026 3.36381,-0.48636 10.88301,-0.97666 16.7091,-1.08934 10.5278,-0.20365 10.62238,-0.18602 15.3826,2.87528 l 4.7897,3.08043 0.90228,-2.51044 c 0.69318,-1.92868 0.69295,-4.0569 -5.2e-4,-9.18342 -0.98058,-7.24924 -2.99757,-14.52573 -4.0263,-14.52573 z m -0.43177,5.36815 c 0.35379,-0.021 0.58548,0.97477 1.06735,3.45819 0.45502,2.34502 1.06388,6.33606 1.35317,8.86922 0.28932,2.53317 0.40102,4.56919 0.24809,4.52479 -0.15293,-0.0444 -2.08062,-1.16123 -4.28346,-2.48202 l -4.00517,-2.4014 1.8408,-4.54753 c 1.01243,-2.50117 2.33074,-5.37542 2.92978,-6.3872 0.38064,-0.64289 0.63717,-1.02146 0.84944,-1.03405 z m -55.4484,1.41903 c 0.78697,0 7.02714,13.65428 6.62094,14.48749 -0.20518,0.42087 -1.50004,1.00496 -2.87745,1.29811 -1.3774,0.29316 -3.10695,0.835 -3.84313,1.20407 -1.18459,0.59389 -1.33858,0.004 -1.33858,-5.12889 0,-6.30846 0.67333,-11.86078 1.43822,-11.86078 z" />
  </g>
</svg>
