<?xml version="1.0" encoding="UTF-8" standalone="no"?>
<svg
   xmlns:dc="http://purl.org/dc/elements/1.1/"
   xmlns:cc="http://creativecommons.org/ns#"
   xmlns:rdf="http://www.w3.org/1999/02/22-rdf-syntax-ns#"
   xmlns:svg="http://www.w3.org/2000/svg"
   xmlns="http://www.w3.org/2000/svg"
   xmlns:xlink="http://www.w3.org/1999/xlink"
   xmlns:sodipodi="http://sodipodi.sourceforge.net/DTD/sodipodi-0.dtd"
   xmlns:inkscape="http://www.inkscape.org/namespaces/inkscape"
   width="78.845833mm"
   height="78.845848mm"
   viewBox="0 0 78.845833 78.845848"
   version="1.1"
   id="svg2806"
   inkscape:version="1.0.2 (e86c870879, 2021-01-15, custom)"
   sodipodi:docname="Av02Orange.svg">
  <defs
     id="defs2800">
    <rect
       x="-365.19708"
       y="337.13379"
       width="361.08112"
       height="153.4127"
       id="rect2416-9-7" />
    <rect
       x="-365.19708"
       y="337.13379"
       width="361.08112"
       height="153.4127"
       id="rect3378" />
    <rect
       x="-365.19708"
       y="337.13379"
       width="361.08112"
       height="153.4127"
       id="rect2416-9-7-0" />
    <rect
       x="-365.19708"
       y="337.13379"
       width="361.08112"
       height="153.4127"
       id="rect3464" />
    <rect
       x="-365.19708"
       y="337.13379"
       width="361.08112"
       height="153.4127"
       id="rect2416-9-7-04" />
    <rect
       x="-365.19708"
       y="337.13379"
       width="361.08112"
       height="153.4127"
       id="rect3464-9" />
    <rect
       x="-365.19708"
       y="337.13379"
       width="361.08112"
       height="153.4127"
       id="rect2416-9-7-04-0" />
    <rect
       x="-365.19708"
       y="337.13379"
       width="361.08112"
       height="153.4127"
       id="rect4115" />
    <linearGradient
       inkscape:collect="always"
       xlink:href="#linearGradient1332"
       id="linearGradient1334"
       x1="56.366486"
       y1="107.68577"
       x2="122.07152"
       y2="173.3784"
       gradientUnits="userSpaceOnUse"
       gradientTransform="translate(160.02488,200.47781)" />
    <linearGradient
       inkscape:collect="always"
       id="linearGradient1332">
      <stop
         style="stop-color:#ffa329;stop-opacity:1"
         offset="0"
         id="stop1328" />
      <stop
         style="stop-color:#cc7500;stop-opacity:1"
         offset="1"
         id="stop1330" />
    </linearGradient>
    <linearGradient
       inkscape:collect="always"
       xlink:href="#linearGradient2233"
       id="linearGradient2235"
       x1="102.78947"
       y1="150.33392"
       x2="106.22218"
       y2="157.74771"
       gradientUnits="userSpaceOnUse" />
    <linearGradient
       inkscape:collect="always"
       id="linearGradient2233">
      <stop
         style="stop-color:#f2f2f2;stop-opacity:1;"
         offset="0"
         id="stop2229" />
      <stop
         style="stop-color:#c8baab;stop-opacity:1"
         offset="1"
         id="stop2231" />
    </linearGradient>
  </defs>
  <sodipodi:namedview
     id="base"
     pagecolor="#ffffff"
     bordercolor="#666666"
     borderopacity="1.0"
     inkscape:pageopacity="0.0"
     inkscape:pageshadow="2"
     inkscape:zoom="0.35"
     inkscape:cx="-205.57143"
     inkscape:cy="-26.402445"
     inkscape:document-units="px"
     inkscape:current-layer="layer1"
     inkscape:document-rotation="0"
     showgrid="false"
     inkscape:snap-intersection-paths="false"
     inkscape:snap-smooth-nodes="false"
     inkscape:snap-midpoints="false"
     inkscape:object-nodes="false"
     fit-margin-top="0"
     fit-margin-left="0"
     fit-margin-right="0"
     fit-margin-bottom="0"
     inkscape:window-width="958"
     inkscape:window-height="1008"
     inkscape:window-x="953"
     inkscape:window-y="0"
     inkscape:window-maximized="0" />
  <metadata
     id="metadata2803">
    <rdf:RDF>
      <cc:Work
         rdf:about="">
        <dc:format>image/svg+xml</dc:format>
        <dc:type
           rdf:resource="http://purl.org/dc/dcmitype/StillImage" />
        <dc:title></dc:title>
      </cc:Work>
    </rdf:RDF>
  </metadata>
  <g
     inkscape:label="Layer 1"
     inkscape:groupmode="layer"
     id="layer1"
     transform="translate(-216.39137,-295.01037)">
    <path
       id="path1223-1"
       style="fill:url(#linearGradient1334);fill-opacity:1;stroke-width:0.264583"
       d="m 229.52028,295.01038 a 13.140968,13.140971 0 0 0 -13.12891,13.1408 13.140968,13.140971 0 0 0 0,0.0124 v 26.26971 a 13.140968,13.140971 0 0 0 0,0.0119 v 26.27023 a 13.140968,13.140971 0 0 0 13.1408,13.1408 h 52.56423 a 13.140968,13.140971 0 0 0 13.1408,-13.1408 13.140968,13.140971 0 0 0 0,-0.0124 v -26.26971 a 13.140968,13.140971 0 0 0 0,-0.0119 v -26.27024 a 13.140968,13.140971 0 0 0 -13.1408,-13.1408 z" />
    <path
       id="path1538-2"
       style="fill:#000000;stroke-width:0.652173"
       d="m 228.67098,332.32394 c 0.28678,0.0233 1.3935,-1.09605 2.45914,-2.48789 4.7288,-6.17619 14.23706,-5.75181 17.39282,0.77626 0.98967,2.04724 2.21705,2.36366 2.34608,0.60475 0.0943,-1.28557 -2.21438,-4.50237 -4.3643,-6.08071 -2.7155,-1.99357 -7.70182,-2.27486 -11.42947,-0.64468 -4.33514,1.89582 -9.01531,7.61947 -6.40427,7.83227 z m 53.8158,2.93726 c 0.16709,0.0106 0.33318,-0.06 0.50675,-0.20475 0.56422,-0.47012 0.42087,-1.26327 -0.53306,-2.94919 -1.67047,-2.95221 -3.94048,-4.94343 -6.64335,-5.82735 -3.03525,-0.99266 -3.29973,-1.01156 -7.05964,-0.50715 -2.49853,0.33518 -4.08262,1.06517 -6.07906,2.80069 -2.55556,2.22154 -3.58973,4.25209 -2.22233,4.36354 0.34207,0.0279 1.80844,-1.0547 3.25919,-2.40563 2.9947,-2.78861 6.3264,-3.61744 10.61482,-2.6411 2.76437,0.62933 5.08935,2.6641 6.95264,6.0852 0.46476,0.85331 0.8365,1.26329 1.20404,1.28576 z" />
    <g
       id="g1781"
       transform="matrix(0.79490858,0,0,0.79490858,179.3563,230.17125)">
      <path
         style="fill:url(#linearGradient2235);fill-opacity:1;stroke:#000000;stroke-width:0.264583px;stroke-linecap:butt;stroke-linejoin:miter;stroke-opacity:1"
         d="m 77.828886,139.38105 c 5.238483,0 10.476966,0 15.715448,0 1.185789,0 2.640113,-0.18013 3.741775,0.18709 0.82369,0.27457 3.163151,0.004 3.928861,-0.18709 0.61282,-0.1532 1.42249,0 2.05797,0 0.6871,0 5.1854,-0.0531 5.23849,0 0.0441,0.0441 -0.0441,0.14299 0,0.18709 0.13229,0.13229 0.38377,-0.0592 0.56126,0 0.75924,0.25308 1.48323,0.6815 2.24507,0.93544 0.17749,0.0592 0.38377,-0.0592 0.56126,0 0.96771,0.32257 1.67729,0.55475 2.24507,1.12254 0.15978,0.15978 0.44435,0.70163 0.56126,0.93544 0.24861,0.49722 0,1.67517 0,2.24506 0,0.077 0.0495,0.51175 0,0.56127 -0.12595,0.12595 -0.23643,0.0987 -0.37418,0.37418 -0.10505,0.21012 -0.0441,0.97955 -0.18708,1.12253 -0.0441,0.0441 -0.14299,-0.0441 -0.18709,0 -0.22301,0.22301 0.14053,1.21564 0,1.49671 -0.0394,0.0789 -0.14765,0.1082 -0.18709,0.18709 -0.0558,0.11156 0.0882,0.28598 0,0.37418 -0.0441,0.0441 -0.14299,-0.0441 -0.18709,0 -0.0882,0.0882 0.0882,0.28598 0,0.37417 -0.0441,0.0441 -0.14299,-0.0441 -0.18709,0 -0.20861,0.20861 -0.0547,0.85784 -0.18709,1.12253 -0.40668,0.81336 -0.75155,1.6902 -1.12253,2.43216 -0.27892,0.55784 -2.55976,1.62432 -2.99342,2.05797 -0.0441,0.0441 0.0441,0.14299 0,0.18709 -0.50624,0.50625 -1.65794,1.20315 -2.24506,1.49671 -0.77862,0.38931 0.2,-0.0129 -0.18709,0.37418 -0.0882,0.0882 -0.26262,-0.0558 -0.37418,0 -1.24197,0.62099 -2.83886,0.88392 -4.11595,1.30962 -0.49881,0.16627 -1.0323,0.51615 -1.49671,0.74835 -0.46369,0.23185 -1.711456,-0.34651 -2.057973,0 -0.04409,0.0441 0.05578,0.1592 0,0.18709 -0.299413,0.14971 -0.801724,-0.10693 -1.122531,0 -1.174068,0.39136 -3.060544,0.34062 -4.115951,-0.18709 -0.111557,-0.0558 -0.285983,0.0882 -0.374177,0 -0.0441,-0.0441 0.0441,-0.14299 0,-0.18709 -0.133545,-0.13354 -0.745908,0.0632 -0.935442,0 -0.263337,-0.0878 -2.548551,-0.67766 -2.619243,-0.74835 -0.387093,-0.38709 0.591529,0.0151 -0.187089,-0.37418 -0.113385,-0.0567 -0.482867,-0.10869 -0.561266,-0.18709 -0.09373,-0.0937 -0.251524,-0.43861 -0.374176,-0.56126 -0.08819,-0.0882 -0.262621,0.0558 -0.374177,0 -0.201115,-0.10056 -0.374179,-0.24945 -0.561266,-0.37418 -0.265406,-0.17694 -0.231023,-0.41811 -0.374179,-0.56126 -0.08819,-0.0882 -0.285983,0.0882 -0.374176,0 -0.02755,-0.0275 -0.340794,-0.54458 -0.374177,-0.56127 -0.111558,-0.0558 -0.255852,0.0394 -0.374179,0 -0.265342,-0.0884 -0.267126,-0.45422 -0.374176,-0.56127 -0.333259,-0.33326 -1.01622,-0.64204 -1.309621,-0.93544 -0.0441,-0.0441 0.0441,-0.14299 0,-0.18709 -0.139446,-0.13945 -0.421818,-0.0476 -0.561266,-0.18709 -0.180343,-0.18034 -0.751687,-1.03065 -0.935443,-1.12253 -0.634145,-0.31707 -1.165748,-1.39605 -1.49671,-2.05798 -0.389308,-0.77861 0.01291,0.20001 -0.374177,-0.18708 -0.139448,-0.13945 -0.0777,-0.39718 -0.187089,-0.56127 -0.334643,-0.50197 -0.838354,-0.74127 -1.122532,-1.30962 -0.15204,-0.30408 -0.122769,-0.87113 -0.374177,-1.12253 -0.125952,-0.12595 -0.236429,-0.0987 -0.374179,-0.37418 -0.119411,-0.23883 -0.148182,-1.04472 -0.374176,-1.49671 -0.229926,-0.45985 0.04345,-1.22272 -0.187089,-1.6838 -0.579033,-1.15807 -0.768126,-2.72724 -0.374177,-4.30304 z"
         id="path1750" />
      <g
         id="g1776" />
    </g>
    <path
       style="fill:#000000;stroke-width:0.18547"
       d="m 253.88857,358.08013 c -3.00935,-0.41849 -5.61609,-1.79421 -8.15417,-4.30341 -2.80698,-2.77504 -4.70949,-6.4266 -5.53358,-10.62079 -0.41998,-2.13749 -0.29516,-2.48838 1.04826,-2.94701 0.90927,-0.31042 1.6063,-0.34603 6.54014,-0.33421 8.14712,0.0195 19.21753,0.62074 22.11079,1.20079 0.94886,0.19022 1.14956,0.30332 1.37489,0.77477 0.65726,1.37509 0.34379,6.50617 -0.5421,8.87397 -1.47747,3.94886 -7.33594,7.07717 -13.90663,7.42587 -0.96907,0.0515 -2.291,0.0199 -2.9376,-0.07 z m 5.69489,-2.32689 c 2.38702,-0.60194 4.12401,-1.31775 5.72141,-2.3578 2.17776,-1.41793 3.94777,-3.62737 3.94777,-4.92788 v -0.54243 l -1.25193,0.0948 c -2.02076,0.1531 -2.32691,0.35288 -3.19913,2.08764 -0.42808,0.85143 -0.85634,1.47949 -0.98236,1.44067 -0.16915,-0.0521 -1.32061,-2.01211 -1.83952,-3.13127 -0.0293,-0.063 -1.94446,-0.20882 -4.2561,-0.32407 -2.31163,-0.11526 -4.33557,-0.26042 -4.49763,-0.32262 -0.4811,-0.18462 -0.35035,-0.80319 0.21539,-1.01898 0.77244,-0.29463 8.81678,-0.32094 9.16826,-0.03 0.15279,0.12649 0.47699,0.81504 0.72044,1.53013 0.24344,0.7151 0.4863,1.29846 0.53967,1.29638 0.0533,-0.002 0.30567,-0.64892 0.5607,-1.4374 l 0.46367,-1.43359 0.83461,-0.13174 c 0.45905,-0.0724 1.52742,-0.0831 2.37419,-0.0236 l 1.53955,0.10809 -0.0558,-1.1819 c -0.0544,-1.15142 -0.0729,-1.1903 -0.71966,-1.50663 -1.6525,-0.80832 -7.74155,-1.25435 -17.32137,-1.26879 -7.21638,-0.0109 -8.2409,0.0907 -8.75022,0.86806 -0.25224,0.38497 -0.25165,0.53279 0.006,1.41232 0.38029,1.30057 1.59505,3.78534 2.49834,5.11027 1.31659,1.93118 3.93938,4.14527 5.93344,5.00886 2.88287,1.24852 5.31507,1.44701 8.35076,0.68148 z"
       id="path2227" />
  </g>
</svg>
