<?xml version="1.0" encoding="UTF-8" standalone="no"?>
<svg
   xmlns:dc="http://purl.org/dc/elements/1.1/"
   xmlns:cc="http://creativecommons.org/ns#"
   xmlns:rdf="http://www.w3.org/1999/02/22-rdf-syntax-ns#"
   xmlns:svg="http://www.w3.org/2000/svg"
   xmlns="http://www.w3.org/2000/svg"
   xmlns:xlink="http://www.w3.org/1999/xlink"
   width="78.845833mm"
   height="78.845848mm"
   viewBox="0 0 78.845833 78.845848"
   version="1.1"
   id="svg2806">
  <defs
     id="defs2800">
    <rect
       x="-365.19708"
       y="337.13379"
       width="361.08112"
       height="153.4127"
       id="rect2416-9-7" />
    <rect
       x="-365.19708"
       y="337.13379"
       width="361.08112"
       height="153.4127"
       id="rect3378" />
    <rect
       x="-365.19708"
       y="337.13379"
       width="361.08112"
       height="153.4127"
       id="rect2416-9-7-0" />
    <rect
       x="-365.19708"
       y="337.13379"
       width="361.08112"
       height="153.4127"
       id="rect3464" />
    <rect
       x="-365.19708"
       y="337.13379"
       width="361.08112"
       height="153.4127"
       id="rect2416-9-7-04" />
    <rect
       x="-365.19708"
       y="337.13379"
       width="361.08112"
       height="153.4127"
       id="rect3464-9" />
    <rect
       x="-365.19708"
       y="337.13379"
       width="361.08112"
       height="153.4127"
       id="rect2416-9-7-04-0" />
    <rect
       x="-365.19708"
       y="337.13379"
       width="361.08112"
       height="153.4127"
       id="rect4115" />
    <linearGradient
       xlink:href="#linearGradient1430"
       id="linearGradient1432"
       x1="54.768745"
       y1="221.89705"
       x2="120.47378"
       y2="287.60208"
       gradientUnits="userSpaceOnUse"
       gradientTransform="translate(-9.4493972,123.069)" />
    <linearGradient
       id="linearGradient1430">
      <stop
         style="stop-color:#29b5ff;stop-opacity:1"
         offset="0"
         id="stop1426" />
      <stop
         style="stop-color:#0085cc;stop-opacity:1"
         offset="1"
         id="stop1428" />
    </linearGradient>
  </defs>
  <metadata
     id="metadata2803">
    <rdf:RDF>
      <cc:Work
         rdf:about="">
        <dc:format>image/svg+xml</dc:format>
        <dc:type
           rdf:resource="http://purl.org/dc/dcmitype/StillImage" />
        <dc:title></dc:title>
      </cc:Work>
    </rdf:RDF>
  </metadata>
  <g
     id="layer1"
     transform="translate(-45.319349,-331.82524)">
    <path
       id="path1223-6-9"
       style="fill:url(#linearGradient1432);fill-opacity:1;stroke-width:0.264583"
       d="m 58.44826,331.82525 a 13.140968,13.140971 0 0 0 -13.12891,13.1408 13.140968,13.140971 0 0 0 0,0.0124 v 26.26971 a 13.140968,13.140971 0 0 0 0,0.0119 v 26.27022 a 13.140968,13.140971 0 0 0 13.1408,13.14081 h 52.56423 a 13.140968,13.140971 0 0 0 13.1408,-13.14081 13.140968,13.140971 0 0 0 0,-0.0124 v -26.26971 a 13.140968,13.140971 0 0 0 0,-0.0119 v -26.27023 a 13.140968,13.140971 0 0 0 -13.1408,-13.1408 z" />
    <g
       id="g1580"
       transform="translate(209.35355,182.32521)">
      <circle
         style="fill:#000000;fill-opacity:1;stroke-width:0.264583"
         id="path1574"
         cx="-140.3165"
         cy="184.46942"
         r="9.3544331" />
      <circle
         style="fill:#f2f2f2;fill-opacity:1;stroke-width:0.264583"
         id="path1576"
         cx="-138.44562"
         cy="182.03728"
         r="4.6772165" />
    </g>
    <g
       id="g1586"
       transform="translate(239.46931,182.24771)">
      <circle
         style="fill:#000000;fill-opacity:1;stroke-width:0.264583"
         id="circle1582"
         cx="-140.3165"
         cy="184.46942"
         r="9.3544331" />
      <circle
         style="fill:#f2f2f2;fill-opacity:1;stroke-width:0.264583"
         id="circle1584"
         cx="-138.44562"
         cy="182.03728"
         r="4.6772165" />
    </g>
    <g
       id="g2075"
       transform="translate(-7.5973143,125.18567)">
      <path
         id="path1521"
         style="fill:#000000;stroke-width:2.21593"
         transform="matrix(0.26458333,0,0,0.26458333,-28.045833,-72.23125)"
         d="m 450.88477,1244.127 c -15.61773,0 -23.42867,20.8662 -12.06446,32.2304 11.39732,11.3973 30.20221,3.3121 30.66992,-13.1875 0.2939,-10.3687 -8.18191,-19.0429 -18.60546,-19.0429 z m 1.12109,20.5234 c 4.66601,-0.1839 7.9668,2.6708 7.9668,7.4121 0,4.3453 -1.13243,5.3027 -6.27735,5.3027 -3.45313,0 -6.94333,-0.664 -7.75586,-1.4765 -2.9605,-2.9606 -1.37252,-9.337 2.64258,-10.6114 1.19833,-0.3803 2.34706,-0.5845 3.42383,-0.6269 z" />
      <ellipse
         style="fill:#0e4cd4;fill-opacity:1;stroke-width:0.355917"
         id="path1937"
         cx="91.53067"
         cy="263.80008"
         rx="2.7620189"
         ry="2.6142364" />
    </g>
  </g>
</svg>
