<?xml version="1.0" encoding="UTF-8" standalone="no"?>
<svg
   xmlns:dc="http://purl.org/dc/elements/1.1/"
   xmlns:cc="http://creativecommons.org/ns#"
   xmlns:rdf="http://www.w3.org/1999/02/22-rdf-syntax-ns#"
   xmlns:svg="http://www.w3.org/2000/svg"
   xmlns="http://www.w3.org/2000/svg"
   xmlns:xlink="http://www.w3.org/1999/xlink"
   width="78.845833mm"
   height="78.845848mm"
   viewBox="0 0 78.845833 78.845848"
   version="1.1"
   id="svg2806">
  <defs
     id="defs2800">
    <rect
       x="-365.19708"
       y="337.13379"
       width="361.08112"
       height="153.4127"
       id="rect2416-9-7" />
    <rect
       x="-365.19708"
       y="337.13379"
       width="361.08112"
       height="153.4127"
       id="rect3378" />
    <rect
       x="-365.19708"
       y="337.13379"
       width="361.08112"
       height="153.4127"
       id="rect2416-9-7-0" />
    <rect
       x="-365.19708"
       y="337.13379"
       width="361.08112"
       height="153.4127"
       id="rect3464" />
    <rect
       x="-365.19708"
       y="337.13379"
       width="361.08112"
       height="153.4127"
       id="rect2416-9-7-04" />
    <rect
       x="-365.19708"
       y="337.13379"
       width="361.08112"
       height="153.4127"
       id="rect3464-9" />
    <rect
       x="-365.19708"
       y="337.13379"
       width="361.08112"
       height="153.4127"
       id="rect2416-9-7-04-0" />
    <rect
       x="-365.19708"
       y="337.13379"
       width="361.08112"
       height="153.4127"
       id="rect4115" />
    <linearGradient
       xlink:href="#linearGradient1448"
       id="linearGradient1450"
       x1="162.71875"
       y1="220.32195"
       x2="228.42378"
       y2="286.01459"
       gradientUnits="userSpaceOnUse"
       gradientTransform="translate(-51.744936,195.60262)" />
    <linearGradient
       id="linearGradient1448">
      <stop
         style="stop-color:#c2a3ff;stop-opacity:1"
         offset="0"
         id="stop1444" />
      <stop
         style="stop-color:#905cff;stop-opacity:1"
         offset="1"
         id="stop1446" />
    </linearGradient>
  </defs>
  <metadata
     id="metadata2803">
    <rdf:RDF>
      <cc:Work
         rdf:about="">
        <dc:format>image/svg+xml</dc:format>
        <dc:type
           rdf:resource="http://purl.org/dc/dcmitype/StillImage" />
        <dc:title></dc:title>
      </cc:Work>
    </rdf:RDF>
  </metadata>
  <g
     id="layer1"
     transform="translate(-110.97381,-402.77136)">
    <path
       id="path1223-6-9-9"
       style="fill:url(#linearGradient1450);fill-opacity:1;stroke-width:0.264583"
       d="m 124.10272,402.77137 a 13.140968,13.140971 0 0 0 -13.12891,13.1408 13.140968,13.140971 0 0 0 0,0.0124 v 26.26971 a 13.140968,13.140971 0 0 0 0,0.0119 v 26.27022 a 13.140968,13.140971 0 0 0 13.1408,13.14081 h 52.56423 a 13.140968,13.140971 0 0 0 13.1408,-13.14081 13.140968,13.140971 0 0 0 0,-0.0124 v -26.26971 a 13.140968,13.140971 0 0 0 0,-0.0119 v -26.27023 a 13.140968,13.140971 0 0 0 -13.1408,-13.1408 z" />
    <path
       id="path1538"
       style="fill:#000000;stroke-width:0.599815"
       d="m 176.85693,434.88756 c -0.2716,0 -1.23618,1.0804 -2.14328,2.40113 -4.02523,5.86061 -13.00585,6.17375 -16.42762,0.5728 -1.07309,-1.75649 -2.25043,-1.94976 -2.25043,-0.36935 0,1.15509 2.39562,3.86018 4.52862,5.11339 2.69412,1.58293 7.4078,1.47117 10.80451,-0.2562 3.95027,-2.00889 7.96098,-7.46177 5.4882,-7.46177 z m -50.86637,1.29414 c -0.15799,0.003 -0.3095,0.0779 -0.46292,0.21976 -0.4987,0.46097 -0.30897,1.15896 0.70554,2.59532 1.7765,2.51522 4.05108,4.12846 6.65666,4.72119 2.92602,0.66567 3.17631,0.6633 6.68115,-0.061 2.32903,-0.48126 3.76992,-1.24858 5.52955,-2.94402 2.25243,-2.17025 3.08576,-4.05916 1.79077,-4.05916 -0.32395,0 -1.62966,1.07367 -2.90213,2.38589 -2.62668,2.70871 -5.70598,3.69153 -9.81065,3.13169 -2.64589,-0.36088 -4.97523,-2.00902 -6.96565,-4.92901 -0.49645,-0.72831 -0.87474,-1.06744 -1.22232,-1.06074 z" />
    <path
       id="path2086"
       style="fill:#000000;fill-opacity:1;stroke-width:0.0739359"
       d="m 157.82388,448.4426 a 12.024529,11.083479 0 0 0 -12.0246,11.08341 12.024529,11.083479 0 0 0 0.15061,1.7502 h 23.7474 a 12.024529,11.083479 0 0 0 0.15118,-1.7502 12.024529,11.083479 0 0 0 -12.02459,-11.08341 z" />
    <path
       id="path2097"
       style="fill:#4216a7;fill-opacity:1;stroke-width:0.0389027"
       d="m 162.43643,454.4642 a 6.3269258,5.8317749 0 0 0 -6.32696,5.83173 6.3269258,5.8317749 0 0 0 0.0792,0.9209 h 12.49513 a 6.3269258,5.8317749 0 0 0 0.0795,-0.9209 6.3269258,5.8317749 0 0 0 -6.32695,-5.83173 z" />
  </g>
</svg>
